<svg viewBox="0 0 24 24" xmlns="http://www.w3.org/2000/svg" fill-rule="evenodd" clip-rule="evenodd" stroke-linejoin="round" stroke-miterlimit="2"><path d="M5.997.066C6.75.06 7.396.575 7.716 1.206L9.59 4.255C8.84 6.178 7.632 7.909 6.44 9.592c-.053-.47-.123-.992-.427-1.38-1.54-2.445-3.082-4.894-4.625-7.34-.336-.395.029-.89.517-.813C3.27.053 4.635.065 5.998.066z" fill="#d43f36" fill-rule="nonzero"/><path d="M22.392 5.79c-.137-.302-.53-.24-.803-.265l-3.902.013a1.838 1.838 0 00-1.548.863L11.46 13.8a1.62 1.62 0 000 1.805c.895 1.387 1.74 2.8 2.658 4.17.098-.518.253-1.036.561-1.475.899-1.348 1.712-2.744 2.615-4.09l4.91-7.7c.129-.214.287-.464.187-.718h.002z" fill="#099e57" fill-rule="nonzero"/><path d="M9.59 4.255c-1.086 1.873-2.087 3.796-3.327 5.58-1.606 2.554-3.215 5.11-4.823 7.664-.48.64.155.92.78.917 1.295-.005 2.59.01 3.882-.01.702-.038 1.277-.506 1.58-1.098 1.532-2.426 3.078-4.844 4.605-7.274.327-.571.265-1.29-.156-1.796L9.59 4.255z" fill="#4585f4" fill-rule="nonzero"/><path d="M17.291 14.207c-.04.534.044 1.091.379 1.528 1.536 2.44 3.084 4.873 4.611 7.318.274.4-.037.804-.49.791l-4.19.02c-.728-.025-1.363-.511-1.669-1.137-.586-.994-1.211-1.967-1.817-2.952.096-.646.381-1.242.756-1.776l2.42-3.792z" fill="#f7c542" fill-rule="nonzero"/><path d="M10.521 10.706c.679 1.014 1.293 2.066 1.97 3.082.231.332.348.72.422 1.111l-.174.284-3.023-2.312c.16-.272.474-.918.633-1.19.179-.294.183-.645.172-.975z" fill="url(#_Radial1)" fill-rule="nonzero" transform="matrix(-1.32717 0 0 1.32717 31.256 0)"/><path d="M6.006 2.72L2.983 5.054c.317.658.793 1.258.922 1.99.007.136.046.15.11.019.658-.999 1.298-1.96 1.95-2.962.164-.277.258-.586.341-.894l-.3-.485V2.72z" fill="url(#_Radial2)" fill-rule="nonzero" transform="translate(1.222) scale(1.32717)"/><defs><radialGradient id="_Radial1" cx="0" cy="0" r="1" gradientUnits="userSpaceOnUse" gradientTransform="matrix(3.15353 -2.24249 1.60107 2.25232 12.96 15.28)"><stop offset="0" stop-color="#daac3c"/><stop offset="1" stop-color="#f7c542"/></radialGradient><radialGradient id="_Radial2" cx="0" cy="0" r="1" gradientUnits="userSpaceOnUse" gradientTransform="matrix(-3.51388 4.13507 -3.09787 -2.63435 6.492 2.976)"><stop offset="0" stop-color="#b63a32"/><stop offset="1" stop-color="#d43f36"/></radialGradient></defs></svg>